<svg width="24" height="24" viewBox="0 0 24 24" fill="none" xmlns="http://www.w3.org/2000/svg">
<path fill-rule="evenodd" clip-rule="evenodd" d="M2.00049 12C2.00049 11.4477 2.4482 11 3.00049 11H21.0005C21.5528 11 22.0005 11.4477 22.0005 12C22.0005 12.5523 21.5528 13 21.0005 13H3.00049C2.4482 13 2.00049 12.5523 2.00049 12Z" fill="#151515"/>
<path fill-rule="evenodd" clip-rule="evenodd" d="M2.00049 12C2.00049 11.4477 2.4482 11 3.00049 11H21.0005C21.5528 11 22.0005 11.4477 22.0005 12C22.0005 12.5523 21.5528 13 21.0005 13H3.00049C2.4482 13 2.00049 12.5523 2.00049 12Z" fill="black" fill-opacity="0.2"/>
<path fill-rule="evenodd" clip-rule="evenodd" d="M2.00049 12C2.00049 11.4477 2.4482 11 3.00049 11H21.0005C21.5528 11 22.0005 11.4477 22.0005 12C22.0005 12.5523 21.5528 13 21.0005 13H3.00049C2.4482 13 2.00049 12.5523 2.00049 12Z" fill="black" fill-opacity="0.2"/>
<path fill-rule="evenodd" clip-rule="evenodd" d="M2.00049 12C2.00049 11.4477 2.4482 11 3.00049 11H21.0005C21.5528 11 22.0005 11.4477 22.0005 12C22.0005 12.5523 21.5528 13 21.0005 13H3.00049C2.4482 13 2.00049 12.5523 2.00049 12Z" fill="black" fill-opacity="0.2"/>
<path fill-rule="evenodd" clip-rule="evenodd" d="M2.00049 6C2.00049 5.44772 2.4482 5 3.00049 5H21.0005C21.5528 5 22.0005 5.44772 22.0005 6C22.0005 6.55228 21.5528 7 21.0005 7H3.00049C2.4482 7 2.00049 6.55228 2.00049 6Z" fill="#151515"/>
<path fill-rule="evenodd" clip-rule="evenodd" d="M2.00049 6C2.00049 5.44772 2.4482 5 3.00049 5H21.0005C21.5528 5 22.0005 5.44772 22.0005 6C22.0005 6.55228 21.5528 7 21.0005 7H3.00049C2.4482 7 2.00049 6.55228 2.00049 6Z" fill="black" fill-opacity="0.2"/>
<path fill-rule="evenodd" clip-rule="evenodd" d="M2.00049 6C2.00049 5.44772 2.4482 5 3.00049 5H21.0005C21.5528 5 22.0005 5.44772 22.0005 6C22.0005 6.55228 21.5528 7 21.0005 7H3.00049C2.4482 7 2.00049 6.55228 2.00049 6Z" fill="black" fill-opacity="0.2"/>
<path fill-rule="evenodd" clip-rule="evenodd" d="M2.00049 6C2.00049 5.44772 2.4482 5 3.00049 5H21.0005C21.5528 5 22.0005 5.44772 22.0005 6C22.0005 6.55228 21.5528 7 21.0005 7H3.00049C2.4482 7 2.00049 6.55228 2.00049 6Z" fill="black" fill-opacity="0.2"/>
<path fill-rule="evenodd" clip-rule="evenodd" d="M2.00049 18C2.00049 17.4477 2.4482 17 3.00049 17H21.0005C21.5528 17 22.0005 17.4477 22.0005 18C22.0005 18.5523 21.5528 19 21.0005 19H3.00049C2.4482 19 2.00049 18.5523 2.00049 18Z" fill="#151515"/>
<path fill-rule="evenodd" clip-rule="evenodd" d="M2.00049 18C2.00049 17.4477 2.4482 17 3.00049 17H21.0005C21.5528 17 22.0005 17.4477 22.0005 18C22.0005 18.5523 21.5528 19 21.0005 19H3.00049C2.4482 19 2.00049 18.5523 2.00049 18Z" fill="black" fill-opacity="0.2"/>
<path fill-rule="evenodd" clip-rule="evenodd" d="M2.00049 18C2.00049 17.4477 2.4482 17 3.00049 17H21.0005C21.5528 17 22.0005 17.4477 22.0005 18C22.0005 18.5523 21.5528 19 21.0005 19H3.00049C2.4482 19 2.00049 18.5523 2.00049 18Z" fill="black" fill-opacity="0.2"/>
<path fill-rule="evenodd" clip-rule="evenodd" d="M2.00049 18C2.00049 17.4477 2.4482 17 3.00049 17H21.0005C21.5528 17 22.0005 17.4477 22.0005 18C22.0005 18.5523 21.5528 19 21.0005 19H3.00049C2.4482 19 2.00049 18.5523 2.00049 18Z" fill="black" fill-opacity="0.2"/>
</svg>
