<svg width="168" height="33" viewBox="0 0 168 33" fill="none" xmlns="http://www.w3.org/2000/svg">
<g clip-path="url(#clip0_2010_27328)">
<path d="M21.8502 22.701C21.8502 29.5881 16.554 32.2361 10.9053 32.2361C7.70472 32.2361 3.94211 31.3217 1.92269 29.9405L3.29434 27.0923C4.9899 28.2069 7.4761 29.0546 10.5148 29.0546C15.3823 29.0546 18.0305 27.1496 18.0305 23.2535V21.5866C16.3635 23.9775 13.1629 25.4253 9.76224 25.4253C3.84684 25.4253 0.09375 21.72 0.09375 15.957C0.09375 10.194 3.85636 6.42188 9.76224 6.42188C13.42 6.42188 16.3635 7.86024 18.0305 10.2892V7.07914H21.8502V22.7105V22.701ZM18.0305 18.4431V13.4327C16.2682 10.6512 13.7821 9.56533 10.772 9.56533C6.32349 9.56533 3.84685 11.8896 3.84685 15.957C3.84685 20.0244 6.33301 22.32 10.772 22.32C13.7821 22.32 16.2587 21.2341 18.0305 18.4527V18.4431Z" fill="#231F20"/>
<path d="M27.2422 2.47749C27.2422 1.22965 28.2901 0.34375 29.6903 0.34375C31.0906 0.34375 32.1098 1.22965 32.1098 2.47749C32.1098 3.65867 31.1001 4.61122 29.6903 4.61122C28.2805 4.61122 27.2422 3.65867 27.2422 2.47749ZM31.624 25.0245H27.8328V7.05928H31.624V25.0245Z" fill="#231F20"/>
<path d="M37.5391 25.0191V7.05399H41.3588V10.5308C42.9305 7.97796 45.8644 6.40625 49.5318 6.40625C54.9899 6.40625 57.7048 9.91166 57.7048 14.7601V25.0191H53.9136V15.0269C53.9136 11.4834 52.1132 9.58779 48.5602 9.58779C45.4929 9.58779 42.9114 11.0261 41.3683 13.9791V25.0287H37.5486L37.5391 25.0191Z" fill="#231F20"/>
<path d="M83.9362 22.701C83.9362 29.5881 78.6399 32.2361 72.9913 32.2361C69.7906 32.2361 66.028 31.3217 64.0086 29.9405L65.3803 27.0923C67.0758 28.2069 69.5621 29.0546 72.6008 29.0546C77.4683 29.0546 80.1165 27.1496 80.1165 23.2535V21.5866C78.4495 23.9775 75.2488 25.4253 71.8481 25.4253C65.9328 25.4253 62.1797 21.72 62.1797 15.957C62.1797 10.194 65.9328 6.42188 71.8481 6.42188C75.506 6.42188 78.4495 7.86024 80.1165 10.2892V7.07914H83.9362V22.7105V22.701ZM80.1165 18.4431V13.4327C78.3541 10.6512 75.868 9.56533 72.8674 9.56533C68.4189 9.56533 65.9423 11.8896 65.9423 15.957C65.9423 20.0244 68.4285 22.32 72.8674 22.32C75.8775 22.32 78.3541 21.2341 80.1165 18.4527V18.4431Z" fill="#231F20"/>
<path d="M100.016 22.6939C103.312 22.6939 105.369 21.8462 107.331 20.103L109.551 22.494C107.103 24.6943 103.997 25.704 99.8157 25.704C92.662 25.704 88.5469 21.97 88.5469 16.0642C88.5469 10.1584 92.662 6.36719 99.5585 6.36719C105.998 6.36719 110.18 9.73922 110.18 16.0356C110.18 16.4643 110.151 16.6929 110.084 16.8835H92.3095C92.6715 20.7794 95.5101 22.6844 100.025 22.6844L100.016 22.6939ZM92.4714 14.1687L106.484 14.14C105.664 10.8633 103.121 9.38677 99.5871 9.38677C95.834 9.38677 93.1858 10.9966 92.4619 14.1687H92.4714Z" fill="#231F20"/>
<path d="M114.621 25.0225V7.05729H118.441V11.1533C119.879 8.26702 123.213 6.69531 126.9 6.69531V10.0388C122.908 10.0388 119.641 11.7058 118.441 15.0874V25.0225H114.621Z" fill="#231F20"/>
<path d="M151.445 18.8421C153.218 18.8421 154.654 17.4049 154.654 15.6319C154.654 13.8591 153.218 12.4219 151.445 12.4219C149.672 12.4219 148.234 13.8591 148.234 15.6319C148.234 17.4049 149.672 18.8421 151.445 18.8421Z" fill="#EA4624"/>
<path d="M143.566 1.49024L148.052 10.1775C148.537 11.1111 149.576 11.6159 150.604 11.4159C151.424 11.2634 152.1 10.6919 152.387 9.91084L155.529 1.39498C155.721 0.880603 155.339 0.328125 154.787 0.328125H144.26C143.67 0.328125 143.289 0.956804 143.555 1.48071L143.566 1.49024Z" fill="#EA4624"/>
<path d="M135.957 3.41098V1.66781C135.957 0.934349 136.548 0.34375 137.281 0.34375H138.985C139.415 0.34375 139.824 0.553309 140.072 0.905754L147.949 12.0316C148.112 12.2602 148.083 12.5651 147.892 12.7651C147.683 12.9747 147.359 12.9937 147.13 12.8127L136.471 4.44927C136.147 4.2016 135.966 3.81107 135.966 3.40147L135.957 3.41098Z" fill="#EA4624"/>
<path d="M135.957 9.59096C135.957 8.91464 136.68 8.48598 137.271 8.80032L146.949 14.0299C147.14 14.1346 147.264 14.3347 147.264 14.5537C147.264 14.8681 147.026 15.1253 146.721 15.1443L136.929 15.9254C136.405 15.9635 135.966 15.5539 135.966 15.0301V9.58142L135.957 9.59096Z" fill="#EA4624"/>
<path d="M147.605 17.0108C147.785 17.3918 147.709 17.8491 147.413 18.154L137.44 28.2891C136.907 28.8321 135.992 28.4511 135.992 27.6986V19.2494C135.992 18.8493 136.278 18.4969 136.669 18.4206L146.49 16.4584C146.946 16.3631 147.404 16.6013 147.605 17.0204V17.0108Z" fill="#EA4624"/>
<path d="M147.805 19.4104L139.594 30.2218C138.994 31.0125 139.556 32.1555 140.557 32.1555H144.596C145.119 32.1555 145.586 31.8126 145.738 31.3172L149.254 20.1628C149.367 19.7914 149.206 19.3818 148.862 19.1912C148.51 19.0008 148.062 19.096 147.815 19.4199L147.805 19.4104Z" fill="#EA4624"/>
<path d="M150.263 20.4373L148.463 30.7725C148.338 31.4869 148.891 32.1442 149.616 32.1442H153.463C154.226 32.1442 154.778 31.4298 154.607 30.6964L152.082 20.3707C151.978 19.9515 151.606 19.6562 151.178 19.6562C150.72 19.6562 150.339 19.98 150.263 20.4278V20.4373Z" fill="#EA4624"/>
<path d="M153.696 20.3215L158.02 31.0282C158.297 31.7047 158.944 32.1523 159.678 32.1619L166.04 32.2285C167.05 32.238 167.869 31.4284 167.869 30.4187V24.5414C167.869 23.7793 167.393 23.0935 166.67 22.8364L155.201 18.7404C154.848 18.6165 154.467 18.6641 154.152 18.8546C153.667 19.169 153.467 19.7787 153.687 20.312L153.696 20.3215Z" fill="#EA4624"/>
<path d="M156.807 17.3305L167.162 19.169C167.534 19.2357 167.877 18.9499 167.877 18.5784V14.4824C167.877 14.1109 167.543 13.8251 167.181 13.8823L156.836 15.5302C156.445 15.5873 156.141 15.8922 156.084 16.2827C155.998 16.7781 156.331 17.2448 156.827 17.3305H156.807Z" fill="#EA4624"/>
<path d="M155.787 13.6999C155.94 13.9475 156.226 14.0809 156.511 14.0237L167.085 12.1758C167.542 12.0996 167.865 11.6995 167.865 11.2423V9.76581C167.865 9.10855 167.218 8.65133 166.598 8.87994L156.14 12.6711C155.721 12.8235 155.549 13.3188 155.777 13.6999H155.787Z" fill="#EA4624"/>
<path d="M158.796 1.53786L153.995 10.7777C153.805 11.1492 153.9 11.6064 154.233 11.8636C154.491 12.0636 154.834 12.1017 155.119 11.9684L166.54 6.8436C167.34 6.48163 167.864 5.68147 167.864 4.80512V2.55711C167.864 1.3283 166.864 0.328125 165.636 0.328125H160.778C159.94 0.328125 159.178 0.794858 158.796 1.52833V1.53786Z" fill="#EA4624"/>
</g>
<defs>
<clipPath id="clip0_2010_27328">
<rect width="167.935" height="32" fill="white" transform="translate(0.0234375 0.25)"/>
</clipPath>
</defs>
</svg>
